<mxfile host="Electron" modified="2024-03-08T19:07:00.859Z" agent="Mozilla/5.0 (Windows NT 10.0; Win64; x64) AppleWebKit/537.36 (KHTML, like Gecko) draw.io/23.1.5 Chrome/120.0.6099.109 Electron/28.1.0 Safari/537.36" etag="qO42b9P1QIqMqw5U-F53" version="23.1.5" type="device">
  <diagram name="Страница — 1" id="L7nLm0atAx7n1M7F64q2">
    <mxGraphModel dx="1569" dy="1686" grid="1" gridSize="10" guides="1" tooltips="1" connect="1" arrows="1" fold="1" page="1" pageScale="1" pageWidth="827" pageHeight="1169" math="0" shadow="0">
      <root>
        <mxCell id="0" />
        <mxCell id="1" parent="0" />
        <mxCell id="CpFcJFguhMZrxEzbxgDC-1" value="SESSION" style="rounded=0;whiteSpace=wrap;html=1;verticalAlign=top;fontSize=20;fillColor=none;" vertex="1" parent="1">
          <mxGeometry y="200" width="800" height="400" as="geometry" />
        </mxCell>
        <mxCell id="CpFcJFguhMZrxEzbxgDC-3" style="edgeStyle=orthogonalEdgeStyle;rounded=0;orthogonalLoop=1;jettySize=auto;html=1;exitX=1;exitY=0.5;exitDx=0;exitDy=0;entryX=0;entryY=0.5;entryDx=0;entryDy=0;startArrow=classic;startFill=1;" edge="1" parent="1" source="CpFcJFguhMZrxEzbxgDC-4" target="CpFcJFguhMZrxEzbxgDC-6">
          <mxGeometry relative="1" as="geometry" />
        </mxCell>
        <mxCell id="CpFcJFguhMZrxEzbxgDC-4" value="User" style="rounded=0;whiteSpace=wrap;html=1;" vertex="1" parent="1">
          <mxGeometry x="80" y="360" width="120" height="80" as="geometry" />
        </mxCell>
        <mxCell id="CpFcJFguhMZrxEzbxgDC-5" style="edgeStyle=orthogonalEdgeStyle;rounded=0;orthogonalLoop=1;jettySize=auto;html=1;exitX=1;exitY=0.5;exitDx=0;exitDy=0;entryX=0;entryY=0.5;entryDx=0;entryDy=0;startArrow=classic;startFill=1;" edge="1" parent="1" source="CpFcJFguhMZrxEzbxgDC-6" target="CpFcJFguhMZrxEzbxgDC-7">
          <mxGeometry relative="1" as="geometry" />
        </mxCell>
        <mxCell id="CpFcJFguhMZrxEzbxgDC-6" value="SGW" style="rounded=0;whiteSpace=wrap;html=1;" vertex="1" parent="1">
          <mxGeometry x="340" y="360" width="120" height="80" as="geometry" />
        </mxCell>
        <mxCell id="CpFcJFguhMZrxEzbxgDC-7" value="PCRF" style="rounded=0;whiteSpace=wrap;html=1;" vertex="1" parent="1">
          <mxGeometry x="600" y="360" width="120" height="80" as="geometry" />
        </mxCell>
      </root>
    </mxGraphModel>
  </diagram>
</mxfile>
